<svg id="icons" xmlns="http://www.w3.org/2000/svg" xmlns:xlink="http://www.w3.org/1999/xlink" viewBox="0 0 128 128"><defs><style>.cls-1{opacity:0.24;}.cls-2{fill:#fff;}.cls-3{fill:#3f6498;}.cls-4{fill:url(#linear-gradient);}.cls-5{fill:#62f686;}.cls-6{fill:#fbc64f;}.cls-7{fill:#fb51dc;}.cls-8{fill:#1bceeb;}</style><linearGradient id="linear-gradient" x1="33.01" y1="39.15" x2="95" y2="101.14" gradientUnits="userSpaceOnUse"><stop offset="0" stop-color="#fdea61"/><stop offset="0.25" stop-color="#fd7c67"/><stop offset="0.5" stop-color="#fa48fb"/><stop offset="0.75" stop-color="#0dd9ea"/><stop offset="1" stop-color="#73fc73"/></linearGradient></defs><title>hamburger</title><g class="cls-1"><path class="cls-2" d="M35,104A15,15,0,0,1,20,89V84a9,9,0,0,1,2-5.63,13,13,0,0,1-2-23.91c.4-14.7,14.72-26.91,35.09-29.83l.26,0A62.77,62.77,0,0,1,64,24a60.12,60.12,0,0,1,20.33,3.46,6.58,6.58,0,0,1,1,.39c13.72,5.3,22.37,15.46,22.64,26.6a13,13,0,0,1-2,23.91A9,9,0,0,1,108,84v5a15,15,0,0,1-15,15Z"/><path class="cls-3" d="M64,25a59.08,59.08,0,0,1,20,3.4,6,6,0,0,1,.94.35C98.55,34,107,44.06,107,55c0,0,0,.06,0,.09a12,12,0,0,1-2,22.53v1.11A8,8,0,0,1,107,84v5a14,14,0,0,1-14,14H35A14,14,0,0,1,21,89V84a8,8,0,0,1,2-5.26V77.62a12,12,0,0,1-2-22.53v0C21,40.6,35.08,28.51,55.24,25.62l.25,0A61.9,61.9,0,0,1,64,25m0-2a63.77,63.77,0,0,0-8.79.6l-.3,0C34.35,26.59,19.79,38.92,19,53.85a14,14,0,0,0,1.41,25A9.93,9.93,0,0,0,19,84v5a16,16,0,0,0,16,16H93a16,16,0,0,0,16-16V84a9.93,9.93,0,0,0-1.44-5.15,14,14,0,0,0,1.41-25c-.56-11.3-9.36-21.55-23.26-26.93a8.05,8.05,0,0,0-1.1-.42A61.15,61.15,0,0,0,64,23Z"/></g><path class="cls-4" d="M102,74a8,8,0,0,0,.29-16,6.91,6.91,0,0,0,.71-3c0-9.66-7.94-18.09-19.69-22.58a2,2,0,0,0-.52-.2A54.64,54.64,0,0,0,64,29a57.89,57.89,0,0,0-8,.55l-.13,0C38.26,32.07,25,42.53,25,55.06a6.78,6.78,0,0,0,.7,3A8,8,0,0,0,26,74h1v6.56A4,4,0,0,0,25,84v5A10,10,0,0,0,35,99H93a10,10,0,0,0,10-10V84a4,4,0,0,0-2-3.44V74ZM51.76,34.39l-6.39,8.95a2,2,0,0,0,3.26,2.32L57.38,33.4A55.17,55.17,0,0,1,64,33c.91,0,1.81,0,2.71.07L59.37,43.34a2,2,0,0,0,3.25,2.33l8.7-12.17a50.32,50.32,0,0,1,6.86,1.41l.93.4-5.74,8a2,2,0,0,0,3.26,2.33l6.08-8.52C90.25,41.54,95,47.91,95,55v.05A4.8,4.8,0,0,1,94,58H32.12A3.06,3.06,0,0,1,29,55C29,45.58,38.48,37.52,51.76,34.39ZM22,66a4,4,0,0,1,4-4h74.46a6,6,0,0,1,0,8H26A4,4,0,0,1,22,66Zm71,8v6H31V74ZM29,89V84H95v5a8,8,0,0,1-2.72,6H35A6,6,0,0,1,29,89Z"/><circle class="cls-5" cx="21" cy="7" r="5"/><circle class="cls-6" cx="110" cy="24" r="4"/><circle class="cls-6" cx="23" cy="113" r="3"/><circle class="cls-7" cx="118" cy="106" r="6"/><circle class="cls-8" cx="77" cy="13" r="2"/></svg>