<svg t="1702369266096" class="icon" viewBox="0 0 1024 1024" version="1.1"
  xmlns="http://www.w3.org/2000/svg" p-id="31927" xmlns:xlink="http://www.w3.org/1999/xlink"
  width="200" height="200">
  <path
    d="M918.7328 466.944a97.9968 97.9968 0 0 0 10.24-43.7248 323.2256 323.2256 0 0 0-322.816-322.8672H424.448a323.2256 323.2256 0 0 0-322.8672 322.8672 97.9968 97.9968 0 0 0 10.24 43.7248 91.8528 91.8528 0 0 0-58.9824 85.6576v54.9888a90.5728 90.5728 0 0 0 46.7968 80.0768c3.1744 1.6896 6.4512 3.2256 9.728 4.7104v82.4832a153.088 153.088 0 0 0 152.9344 152.9344h501.76a153.1392 153.1392 0 0 0 152.9856-152.9344v-80.8448a136.8064 136.8064 0 0 0 13.6704-6.3488 90.624 90.624 0 0 0 47.2064-80.0768v-54.9888a91.8528 91.8528 0 0 0-59.1872-85.6576z m-2.2528 140.6464a29.6448 29.6448 0 0 1-14.592 26.0608 68.9152 68.9152 0 0 1-23.9104 7.5776l-3.1744 0.4096a83.2 83.2 0 0 1-8.8576 0.512 89.344 89.344 0 0 1-10.8032-0.6656c-23.6032-2.816-36.864-15.0016-49.8176-26.7776l-6.144-5.5808c-12.5952-11.0592-26.112-20.48-50.0224-20.48a76.8 76.8 0 0 0-14.2848 1.2288c-18.7904 3.4816-30.1056 13.824-41.9328 24.6784-10.24 9.2672-20.48 18.7392-35.84 23.7568a77.824 77.824 0 0 1-24.576 3.6864c-30.72 0-46.08-13.9776-60.6208-27.4432s-28.3648-25.9072-56.32-25.9072a75.9808 75.9808 0 0 0-14.2336 1.2288c-18.7904 3.4816-30.1056 13.824-41.984 24.6784-11.0592 10.24-22.4256 20.48-40.2944 25.0368a73.3184 73.3184 0 0 1-9.5232 1.7408 87.808 87.808 0 0 1-10.752 0.6656 89.1392 89.1392 0 0 1-10.752-0.6656c-23.6032-2.816-36.9152-15.0016-49.8176-26.7776-14.592-13.312-28.3648-25.9072-56.32-25.9072s-41.6256 12.5952-56.32 25.9072-30.0544 27.4432-60.6208 27.4432a93.3888 93.3888 0 0 1-9.4208-0.512c-2.1504 0-4.2496-0.6656-6.3488-1.024a68.7616 68.7616 0 0 1-20.1728-6.9632 29.5936 29.5936 0 0 1-14.6432-26.0608v-54.8352a30.72 30.72 0 0 1 30.3616-30.3616H885.76a30.4128 30.4128 0 0 1 30.4128 30.4128zM424.448 161.792h181.7088a261.6832 261.6832 0 0 1 261.4272 261.4272 37.5296 37.5296 0 0 1-37.5296 37.5808H200.5504a37.5296 37.5296 0 0 1-37.5296-37.5296A261.6832 261.6832 0 0 1 424.448 161.792z m339.8656 704.5632h-501.76a91.5968 91.5968 0 0 1-91.4944-91.4944v-71.68h2.048l4.5056-0.3072 4.8128-0.4608 4.2496-0.5632 4.5056-0.7168 4.0448-0.8192c1.4336-0.256 2.8672-0.6144 4.2496-0.9216l3.7888-1.024 3.9936-1.1776 3.5328-1.1264 3.7888-1.3824 3.328-1.28 3.584-1.5872 3.072-1.3824 3.328-1.6896 2.8672-1.4848 3.1744-1.792 2.6624-1.5872 2.9696-1.8944 2.4576-1.5872 2.7648-1.9456 2.2528-1.5872 2.6112-1.9968 2.048-1.5872 2.4576-1.9968 1.8944-1.536 2.304-1.9968 1.7408-1.4848 2.304-2.048 1.3824-1.2288 3.3792-3.072 2.8672-2.6112A58.5216 58.5216 0 0 1 278.528 650.24a15.8208 15.8208 0 0 1 3.2256 0 14.848 14.848 0 0 1 3.1744 0 93.7472 93.7472 0 0 1 11.6224 9.6256c17.8176 16.2816 47.616 43.52 101.9904 43.52 3.4304 0 6.7072 0 9.9328-0.3584 48.128-3.0208 75.3664-27.904 92.16-43.1616A90.1632 90.1632 0 0 1 512 650.24a14.848 14.848 0 0 1 3.1744 0 15.8208 15.8208 0 0 1 3.2256 0 12.5952 12.5952 0 0 1 2.1504 1.4336c1.6896 1.28 3.8912 3.2256 5.9392 5.12l0.9728 0.9216 2.5088 2.2528c16.6912 15.36 43.9296 40.1408 92.16 43.1616 3.2256 0 6.5024 0.3584 9.9328 0.3584 54.3744 0 84.1728-27.2384 101.9904-43.52a97.792 97.792 0 0 1 11.5712-9.6256 15.8208 15.8208 0 0 1 3.2256 0 15.36 15.36 0 0 1 3.1744 0 43.9296 43.9296 0 0 1 7.0144 5.4784l4.5568 4.1472 3.328 3.0208 1.0752 0.9728 2.6112 2.304 1.4848 1.28 2.4576 2.0992 1.7408 1.4848 2.5088 1.9968 1.9968 1.5872 2.6112 1.9456 2.2016 1.5872 2.7648 1.9456 2.4064 1.5872 2.9184 1.8432 2.56 1.5872 3.1232 1.7408 2.816 1.536 3.328 1.6384 2.9696 1.4336 3.584 1.536 3.1232 1.28 3.84 1.4336 3.328 1.1264 4.1984 1.2288 3.4304 0.9728 4.608 1.024c1.1264 0 2.304 0.5632 3.4816 0.768l5.12 0.8704 3.2768 0.512c2.4576 0.3072 5.12 0.512 7.4752 0.7168h1.6384v71.68a91.5968 91.5968 0 0 1-91.2896 91.648z"
    p-id="31928" fill="currentColor"></path>
  <path
    d="M405.504 298.3936a33.9968 33.9968 0 1 0-33.9968-33.9968 34.048 34.048 0 0 0 33.9968 33.9968zM600.2688 298.3936a33.9968 33.9968 0 1 0-33.9968-33.9968 33.9968 33.9968 0 0 0 33.9968 33.9968zM308.1216 400.0768a33.9968 33.9968 0 1 0-33.9968-33.9968 34.048 34.048 0 0 0 33.9968 33.9968zM502.8864 400.0768a33.9968 33.9968 0 1 0-33.9968-33.9968 33.9968 33.9968 0 0 0 33.9968 33.9968zM722.2784 400.0768a33.9968 33.9968 0 1 0-33.9968-33.9968 33.9968 33.9968 0 0 0 33.9968 33.9968z"
    p-id="31929" fill="currentColor"></path>
</svg>
