<svg t="1702450789110" class="icon" viewBox="0 0 1024 1024" version="1.1"
  xmlns="http://www.w3.org/2000/svg" p-id="13601" xmlns:xlink="http://www.w3.org/1999/xlink"
  width="120" height="120">
  <path
    d="M881.167382 685.596567v-6.592275c-2.197425-8.7897-2.197425-17.579399-4.39485-26.369099-2.197425-8.7897-4.39485-17.579399-8.789699-26.369099 0-2.197425-2.197425-4.39485-2.197425-6.592274-4.39485-8.7897-6.592275-17.579399-10.987125-26.369099-6.592275-13.184549-13.184549-24.171674-21.974249-35.158798-4.39485-6.592275-8.7897-10.987124-13.184549-17.579399-6.592275-8.7897-15.381974-17.579399-24.171674-24.171674l-4.39485-4.39485c-8.7897-6.592275-17.579399-15.381974-26.369098-21.974249-2.197425-2.197425-4.39485-2.197425-4.39485-4.39485-8.7897-6.592275-17.579399-13.184549-28.566524-19.776824-2.197425 0-2.197425-2.197425-4.39485-2.197425-10.987124-6.592275-21.974249-13.184549-32.961373-17.579399l-26.369099 6.592275 26.369099-6.592275c-6.592275-2.197425-10.987124-4.39485-17.579399-8.789699 6.592275-4.39485 10.987124-10.987124 17.579399-17.579399 21.974249-26.369099 35.158798-57.133047 35.158798-92.291846 0-24.171674-6.592275-46.145923-17.579399-65.922747-4.39485-8.7897-10.987124-15.381974-15.381974-24.171674-8.7897-10.987124-19.776824-21.974249-32.961373-30.763948-24.171674-17.579399-54.935622-30.763948-87.896996-39.553648-19.776824-2.197425-21.974249-21.974249-21.974249-39.553648v-65.922747-8.7897l15.381974-8.789699c2.197425 0 2.197425-2.197425 2.197425-2.197425 8.7897-6.592275 13.184549-17.579399 8.7897-26.369099 0-2.197425-2.197425-4.39485-4.39485-6.592274-2.197425-2.197425-4.39485-4.39485-6.592275-4.39485h-2.197425c-2.197425 0-4.39485-2.197425-8.789699-2.197425-2.197425 0-6.592275 0-8.7897 2.197425l-26.369099 10.987124-74.712446 32.961374c-2.197425 0-4.39485 2.197425-6.592275 4.394849-2.197425 2.197425-4.39485 4.39485-4.394849 6.592275v2.197425c-2.197425 2.197425-2.197425 4.39485-2.197425 8.7897 0 2.197425 0 6.592275 2.197425 8.789699 2.197425 4.39485 6.592275 6.592275 8.789699 8.7897 4.39485 2.197425 6.592275 2.197425 10.987125 2.197425 2.197425 0 6.592275 0 8.789699-2.197425l21.974249-8.7897V131.845494c0 35.158798-19.776824 37.356223-37.356223 43.948497-8.7897 2.197425-15.381974 4.39485-24.171674 8.7897-2.197425 0-2.197425 0-4.39485 2.197425-6.592275 2.197425-13.184549 6.592275-19.776824 8.789699-2.197425 0-2.197425 2.197425-4.394849 2.197425-6.592275 4.39485-13.184549 6.592275-19.776824 10.987125l-2.197425 2.197425c-6.592275 4.39485-10.987124 8.7897-17.579399 15.381974l-13.18455 13.184549c0 2.197425-2.197425 2.197425-2.197425 4.39485-4.39485 4.39485-6.592275 8.7897-10.987124 15.381974-4.39485 6.592275-8.7897 15.381974-13.18455 24.171674-2.197425 10.987124-6.592275 28.566524-6.592274 46.145923s4.39485 32.961373 8.789699 48.343348 15.381974 30.763948 26.369099 41.751073c4.39485 4.39485 6.592275 8.7897 10.987125 10.987124-8.7897 6.592275-17.579399 8.7897-24.171674 13.184549-8.7897 4.39485-17.579399 8.7897-24.171674 10.987125-2.197425 2.197425-4.39485 2.197425-6.592275 4.39485-6.592275 2.197425-10.987124 6.592275-17.579399 8.789699-2.197425 2.197425-4.39485 2.197425-6.592275 4.39485-4.39485 4.39485-10.987124 6.592275-15.381974 10.987124-2.197425 2.197425-4.39485 2.197425-6.592275 4.39485-6.592275 4.39485-13.184549 10.987124-19.776824 17.579399-10.987124 10.987124-21.974249 19.776824-30.763948 30.763949-4.39485 4.39485-8.7897 10.987124-13.184549 15.381974 0 0-2.197425 2.197425-2.197425 4.39485-4.39485 4.39485-6.592275 8.7897-10.987125 15.381974l-2.197425 2.197425c-2.197425 4.39485-6.592275 8.7897-8.789699 15.381974-2.197425 2.197425-2.197425 4.39485-2.197425 6.592275l-6.592275 13.184549v2.197425c0 2.197425 0 2.197425-2.197425 4.39485-2.197425 4.39485-4.39485 8.7897-4.39485 13.184549 0 2.197425-2.197425 4.39485-2.197424 8.7897-2.197425 4.39485-2.197425 8.7897-4.39485 13.184549 0 4.39485-2.197425 6.592275-2.197425 10.987125s-2.197425 6.592275-2.197425 10.987124v4.39485c0 4.39485 0 6.592275-2.197425 10.987124v28.566524c0 169.201717 167.004292 307.639485 373.562232 307.639485 50.540773 0 101.081545-8.7897 145.030043-24.171674 13.184549-4.39485 24.171674-8.7897 37.356223-15.381974 4.39485-2.197425 6.592275-4.39485 10.987124-6.592275 8.7897-4.39485 15.381974-8.7897 24.171674-13.184549 4.39485-2.197425 8.7897-4.39485 10.987125-6.592275 6.592275-4.39485 15.381974-10.987124 21.974249-15.381974 2.197425-2.197425 6.592275-4.39485 8.789699-6.592275 8.7897-8.7897 19.776824-15.381974 28.566524-24.171674 6.592275-6.592275 15.381974-15.381974 21.974249-24.171673 13.184549-15.381974 24.171674-32.961373 35.158798-52.738198 8.7897-17.579399 17.579399-37.356223 21.974249-57.133047 4.39485-19.776824 6.592275-41.751073 6.592275-61.527897-4.39485-10.987124-4.39485-19.776824-6.592275-30.763948zM659.227468 457.064378zM399.93133 248.309013c8.7897-6.592275 17.579399-13.184549 28.566524-17.579399l32.961373-13.18455h2.197425c2.197425 0 2.197425 0 4.39485-2.197425 2.197425 0 4.39485-2.197425 6.592275-2.197424 2.197425 0 4.39485-2.197425 6.592275-2.197425 2.197425 0 4.39485-2.197425 6.592274-2.197425 2.197425 0 4.39485-2.197425 4.39485-2.197425 8.7897-4.39485 17.579399-13.184549 24.171674-24.171674 8.7897 19.776824 24.171674 28.566524 39.553648 32.961373 2.197425 0 6.592275 2.197425 8.789699 2.197425 2.197425 0 4.39485 2.197425 6.592275 2.197425 10.987124 2.197425 21.974249 6.592275 30.763949 10.987125 8.7897 4.39485 15.381974 6.592275 21.974249 10.987124 8.7897 6.592275 17.579399 10.987124 24.171673 19.776824 10.987124 10.987124 17.579399 21.974249 24.171674 32.961374 6.592275 10.987124 8.7897 24.171674 8.7897 37.356223v15.381974c-2.197425 15.381974-8.7897 28.566524-17.579399 41.751073-26.369099 39.553648-32.961373 65.922747-147.227468 65.922747-105.476395 0-120.858369-24.171674-147.227468-65.922747l-13.184549-26.369099v-2.197425c-2.197425-4.39485-2.197425-8.7897-2.197425-13.184549 0-4.39485-2.197425-8.7897-2.197425-13.184549 4.39485-35.158798 21.974249-63.725322 48.343347-85.699571z m-37.356223 156.017167s-2.197425 0 0 0c-2.197425 0-2.197425 0 0 0-2.197425-2.197425-2.197425 0 0 0-2.197425 0 0 0 0 0z m470.248927 362.575108c-6.592275 26.369099-17.579399 50.540773-32.961373 72.515021-19.776824 30.763948-48.343348 57.133047-81.304721 76.909871-32.961373 21.974249-70.317597 37.356223-112.06867 48.343348-30.763948 8.7897-63.725322 10.987124-98.88412 10.987124s-65.922747-4.39485-98.88412-10.987124c-41.751073-10.987124-79.107296-26.369099-112.068669-48.343348-32.961373-21.974249-59.330472-48.343348-81.304722-76.909871-15.381974-21.974249-26.369099-46.145923-32.961373-72.515021 0-15.381974-2.197425-32.961373-2.197425-52.738198 0-8.7897 0-15.381974 2.197425-24.171674v-4.394849c2.197425-8.7897 2.197425-15.381974 4.39485-24.171674V659.227468c2.197425-6.592275 4.39485-15.381974 6.592275-21.974249v-2.197425c2.197425-8.7897 6.592275-15.381974 10.987124-21.974249 0 0 0-2.197425 2.197425-2.197425 8.7897-15.381974 17.579399-30.763948 30.763948-43.948498 13.184549-13.184549 26.369099-28.566524 41.751073-39.553648 8.7897-6.592275 15.381974-10.987124 24.171674-17.579399 8.7897-6.592275 19.776824-10.987124 30.763949-17.579399l-2.197425-24.171674 32.961373-13.184549-32.961373 13.184549 2.197425 24.171674h2.197425c24.171674-10.987124 48.343348-21.974249 74.712446-28.566524 65.922747 10.987124 134.042918 13.184549 199.965665 2.197425 26.369099 6.592275 52.738197 17.579399 74.712447 28.566524 46.145923 24.171674 83.502146 57.133047 109.871244 96.686695 2.197425 4.39485 6.592275 8.7897 8.7897 13.184549v2.197425l6.592274 13.18455s0 2.197425 2.197425 2.197425l6.592275 13.184549c0 2.197425 0 2.197425 2.197425 4.39485 2.197425 4.39485 2.197425 8.7897 4.39485 10.987124 0 2.197425 0 4.39485 2.197425 4.39485 0 4.39485 2.197425 6.592275 2.197424 10.987124 0 2.197425 0 4.39485 2.197425 6.592275 0 2.197425 2.197425 6.592275 2.197425 8.7897 0 2.197425 0 6.592275 2.197425 8.789699v21.974249c2.197425 21.974249 0 39.553648-4.39485 54.935623z"
    fill="currentColor" p-id="13602"></path>
  <path
    d="M518.592275 481.236052c-48.343348 0-96.686695-10.987124-140.635193-30.763949l17.579399-37.356223c79.107296 37.356223 173.596567 35.158798 252.703862-2.197425l17.579399 37.356223c-46.145923 21.974249-94.48927 32.961373-147.227467 32.961374z"
    fill="currentColor" p-id="13605"></path>
</svg>
